<svg xmlns="http://www.w3.org/2000/svg" xmlns:xlink="http://www.w3.org/1999/xlink" xmlns:lucid="lucid" width="1811" height="1271"><g transform="translate(0 20)" lucid:page-tab-id="0_0"><path d="M500 546a6 6 0 0 1 6-6h548a6 6 0 0 1 6 6v328a6 6 0 0 1-6 6H506a6 6 0 0 1-6-6z" stroke="#3a414a" stroke-width="2" fill="#fcfcca"/><path d="M520 6a6 6 0 0 1 6-6h148a6 6 0 0 1 6 6v108a6 6 0 0 1-6 6H526a6 6 0 0 1-6-6z" stroke="#3a414a" fill="#fff7a1"/><use xlink:href="#a" transform="matrix(1,0,0,1,532,12) translate(19.882716049382715 53.77777777777778)"/><path d="M600 120.96V124a6 6 0 0 1-6 6H426.85" stroke="#3a414a" fill="none"/><path d="M600.5 120.98h-1v-.52h1z" stroke="#3a414a" stroke-width=".05" fill="#3a414a"/><path d="M420.94 138.22l4.56-14.3 7.53 5.42z" stroke="#3a414a" fill="#3a414a"/><path d="M340 146a6 6 0 0 1 6-6h148a6 6 0 0 1 6 6v108a6 6 0 0 1-6 6H346a6 6 0 0 1-6-6z" stroke="#3a414a" fill="#fff7a1"/><use xlink:href="#b" transform="matrix(1,0,0,1,352,152) translate(10.067901234567898 53.77777777777778)"/><a xlink:href="http://reigster.php" target="_blank" transform="matrix(1,0,0,1,352,152)"><path class="lucid-link lucid-hotspot lucid-overlay-hotspot" fill-opacity="0" d="M10.07 36h115.86v26.67H10.07z"/></a><path d="M600 120.96V124a6 6 0 0 0 6 6h167.15" stroke="#3a414a" fill="none"/><path d="M600.5 120.98h-1v-.52h1z" stroke="#3a414a" stroke-width=".05" fill="#3a414a"/><path d="M779.06 138.22l-12.1-8.88 7.54-5.4z" stroke="#3a414a" fill="#3a414a"/><path d="M700 146a6 6 0 0 1 6-6h148a6 6 0 0 1 6 6v108a6 6 0 0 1-6 6H706a6 6 0 0 1-6-6z" stroke="#3a414a" fill="#fff7a1"/><use xlink:href="#c" transform="matrix(1,0,0,1,712,152.00000000000006) translate(22.999999999999993 53.77777777777778)"/><a xlink:href="http://login.php" target="_blank" transform="matrix(1,0,0,1,712,152.00000000000006)"><path class="lucid-link lucid-hotspot lucid-overlay-hotspot" fill-opacity="0" d="M23 36h90v26.67H23z"/></a><path d="M500.96 200h182.19" stroke="#3a414a" fill="none"/><path d="M500.98 200.5h-.52v-1h.52z" stroke="#3a414a" stroke-width=".05" fill="#3a414a"/><path d="M697.92 200l-14.27 4.64v-9.28z" stroke="#3a414a" fill="#3a414a"/><path d="M699.04 200h-182.2" stroke="#3a414a" fill="none"/><path d="M699.54 200.5h-.52v-1h.52z" stroke="#3a414a" stroke-width=".05" fill="#3a414a"/><path d="M502.08 200l14.27-4.64v9.28z" stroke="#3a414a" fill="#3a414a"/><path d="M780 139.04V66a6 6 0 0 0-6-6h-77.15" stroke="#3a414a" fill="none"/><path d="M780.5 139.54h-1v-.52h1z" stroke="#3a414a" stroke-width=".05" fill="#3a414a"/><path d="M682.08 60l14.27-4.64v9.28z" stroke="#3a414a" fill="#3a414a"/><path d="M420 139.04V66a6 6 0 0 1 6-6h77.15" stroke="#3a414a" fill="none"/><path d="M420.5 139.54h-1v-.52h1z" stroke="#3a414a" stroke-width=".05" fill="#3a414a"/><path d="M517.92 60l-14.27 4.64v-9.28z" stroke="#3a414a" fill="#3a414a"/><path d="M782 556.8h-4v-81.12h4zm0-102.45h-4v-191.9h4z" stroke="#3a414a" stroke-width=".05" fill="#3a414a"/><path d="M782 262.5h-4v-2.04h4z" fill="#3a414a"/><path d="M782.02 262.54H778v-2.1H782zm-4-2.05v2H782v-2z" stroke="#3a414a" stroke-width=".05" fill="#3a414a"/><path d="M780 573.06l-4.64-14.26h9.28z" fill="#3a414a"/><path d="M780 579.54l-7.4-22.74h14.8zm-1.88-18.74l1.88 5.8 1.88-5.8z" stroke="#3a414a" stroke-width=".05" fill="#3a414a"/><use xlink:href="#d" transform="matrix(1,0,0,1,683.9012345679013,454.3479250468127) translate(0 14.222222222222223)"/><use xlink:href="#e" transform="matrix(1,0,0,1,683.9012345679013,454.3479250468127) translate(113.4320987654321 14.222222222222223)"/><use xlink:href="#f" transform="matrix(1,0,0,1,683.9012345679013,454.3479250468127) translate(176.44444444444446 14.222222222222223)"/><path d="M700 586a6 6 0 0 1 6-6h148a6 6 0 0 1 6 6v108a6 6 0 0 1-6 6H706a6 6 0 0 1-6-6z" stroke="#3a414a" fill="#fff7a1"/><use xlink:href="#g" transform="matrix(1,0,0,1,712,592) translate(-6.043209876543216 52.44444444444444)"/><a xlink:href="http://homepage.php" target="_blank" transform="matrix(1,0,0,1,712,592)"><path class="lucid-link lucid-hotspot lucid-overlay-hotspot" fill-opacity="0" d="M-6.04 34.67h148.1v26.67H-6.05z"/></a><path d="M780 701.46V704a6 6 0 0 1-6 6H608.97" stroke="#3a414a" stroke-width="2" fill="none"/><path d="M781 701.5h-2v-1.04h2z" stroke="#3a414a" stroke-width=".05" fill="#3a414a"/><path d="M602.22 717.18l6.4-13.57 6.74 6.36z" stroke="#3a414a" stroke-width="2" fill="#3a414a"/><path d="M520 726a6 6 0 0 1 6-6h148a6 6 0 0 1 6 6v108a6 6 0 0 1-6 6H526a6 6 0 0 1-6-6z" stroke="#3a414a" fill="#fff7a1"/><use xlink:href="#h" transform="matrix(1,0,0,1,532,732) translate(10.623456790123456 53.77777777777778)"/><a xlink:href="http://mypets.php" target="_blank" transform="matrix(1,0,0,1,532,732)"><path class="lucid-link lucid-hotspot lucid-overlay-hotspot" fill-opacity="0" d="M10.62 36h114.75v26.67H10.62z"/></a><path d="M780 701.46V704a6 6 0 0 0 6 6h165.03" stroke="#3a414a" stroke-width="2" fill="none"/><path d="M781 701.5h-2v-1.04h2z" stroke="#3a414a" stroke-width=".05" fill="#3a414a"/><path d="M957.78 717.18l-13.14-7.22 6.75-6.35z" stroke="#3a414a" stroke-width="2" fill="#3a414a"/><path d="M880 726a6 6 0 0 1 6-6h148a6 6 0 0 1 6 6v108a6 6 0 0 1-6 6H886a6 6 0 0 1-6-6z" stroke="#3a414a" fill="#fff7a1"/><use xlink:href="#i" transform="matrix(1,0,0,1,892,732) translate(-2.308641975308632 52.44444444444444)"/><a xlink:href="http://mygroups.php" target="_blank" transform="matrix(1,0,0,1,892,732)"><path class="lucid-link lucid-hotspot lucid-overlay-hotspot" fill-opacity="0" d="M-2.3 34.67h140.6v26.67H-2.3z"/></a><path d="M960 718.54V646a6 6 0 0 0-6-6h-75.03" stroke="#3a414a" stroke-width="2" fill="none"/><path d="M961 719.54h-2v-1.03h2z" stroke="#3a414a" stroke-width=".05" fill="#3a414a"/><path d="M863.7 640l14.27-4.64v9.28z" stroke="#3a414a" stroke-width="2" fill="#3a414a"/><path d="M600 718.54V646a6 6 0 0 1 6-6h75.03" stroke="#3a414a" stroke-width="2" fill="none"/><path d="M601 719.54h-2v-1.03h2z" stroke="#3a414a" stroke-width=".05" fill="#3a414a"/><path d="M696.3 640l-14.27 4.64v-9.28z" stroke="#3a414a" stroke-width="2" fill="#3a414a"/><path d="M680.96 780h182.2" stroke="#3a414a" fill="none"/><path d="M680.98 780.5h-.52v-1h.52z" stroke="#3a414a" stroke-width=".05" fill="#3a414a"/><path d="M877.92 780l-14.27 4.64v-9.28z" stroke="#3a414a" fill="#3a414a"/><path d="M878.54 780H698.97" stroke="#3a414a" stroke-width="2" fill="none"/><path d="M879.54 781h-1.03v-2h1.04z" stroke="#3a414a" stroke-width=".05" fill="#3a414a"/><path d="M683.7 780l14.27-4.64v9.28z" stroke="#3a414a" stroke-width="2" fill="#3a414a"/><path d="M1520 656a6 6 0 0 1 6-6h148a6 6 0 0 1 6 6v108a6 6 0 0 1-6 6h-148a6 6 0 0 1-6-6z" stroke="#3a414a" fill="#fff7a1"/><use xlink:href="#j" transform="matrix(1,0,0,1,1532,662) translate(16.179012345679006 53.77777777777778)"/><path d="M1061.96 710h9.76m9.76 0h19.5m9.77 0h19.5m9.77 0h19.5m9.77 0h19.5m9.76 0h19.52m9.75 0h19.52m9.76 0h19.52m9.76 0h19.5m9.77 0h19.5m9.77 0h19.5m9.77 0h19.5m9.76 0h19.52m9.75 0h19.52m9.76 0h19.52m9.76 0h9.75" stroke="#3a414a" stroke-width="2" fill="none"/><path d="M1062 711h-1.04v-2h1.03z" stroke="#3a414a" stroke-width=".05" fill="#3a414a"/><path d="M1516.3 710l-14.27 4.64v-9.28z" stroke="#3a414a" stroke-width="2" fill="#3a414a"/><path d="M600 841.46V914a6 6 0 0 1-6 6H316a6 6 0 0 0-6 6v55.03" stroke="#3a414a" stroke-width="2" fill="none"/><path d="M601 841.5h-2v-1.04h2z" stroke="#3a414a" stroke-width=".05" fill="#3a414a"/><path d="M310 996.3l-4.64-14.27h9.28z" stroke="#3a414a" stroke-width="2" fill="#3a414a"/><path d="M230 1006a6 6 0 0 1 6-6h148a6 6 0 0 1 6 6v108a6 6 0 0 1-6 6H236a6 6 0 0 1-6-6z" stroke="#3a414a" fill="#fff7a1"/><use xlink:href="#k" transform="matrix(1,0,0,1,242,1012) translate(4.4506172839506135 53.77777777777778)"/><path d="M600 841.46V914a6 6 0 0 1-6 6h-68a6 6 0 0 0-6 6v55.03" stroke="#3a414a" stroke-width="2" fill="none"/><path d="M601 841.5h-2v-1.04h2z" stroke="#3a414a" stroke-width=".05" fill="#3a414a"/><path d="M520 996.3l-4.64-14.27h9.28z" stroke="#3a414a" stroke-width="2" fill="#3a414a"/><path d="M440 1006a6 6 0 0 1 6-6h148a6 6 0 0 1 6 6v108a6 6 0 0 1-6 6H446a6 6 0 0 1-6-6z" stroke="#3a414a" fill="#fff7a1"/><use xlink:href="#l" transform="matrix(1,0,0,1,452,1012) translate(-1.0740740740740762 52.44444444444444)"/><a xlink:href="http://petdetails.php" target="_blank" transform="matrix(1,0,0,1,452,1012)"><path class="lucid-link lucid-hotspot lucid-overlay-hotspot" fill-opacity="0" d="M-1.07 34.67h138.15v26.67H-1.07z"/></a><path d="M600 841.46V914a6 6 0 0 0 6 6h118a6 6 0 0 1 6 6v55.03" stroke="#3a414a" stroke-width="2" fill="none"/><path d="M601 841.5h-2v-1.04h2z" stroke="#3a414a" stroke-width=".05" fill="#3a414a"/><path d="M730 996.3l-4.64-14.27h9.28z" stroke="#3a414a" stroke-width="2" fill="#3a414a"/><path d="M650 1006a6 6 0 0 1 6-6h148a6 6 0 0 1 6 6v108a6 6 0 0 1-6 6H656a6 6 0 0 1-6-6z" stroke="#3a414a" fill="#fff7a1"/><use xlink:href="#m" transform="matrix(1,0,0,1,662,1012) translate(-7.15432098765433 52.44444444444444)"/><path d="M600 841.46V914a6 6 0 0 0 6 6h328a6 6 0 0 1 6 6v55.03" stroke="#3a414a" stroke-width="2" fill="none"/><path d="M601 841.5h-2v-1.04h2z" stroke="#3a414a" stroke-width=".05" fill="#3a414a"/><path d="M940 996.3l-4.64-14.27h9.28z" stroke="#3a414a" stroke-width="2" fill="#3a414a"/><path d="M860 1006a6 6 0 0 1 6-6h148a6 6 0 0 1 6 6v108a6 6 0 0 1-6 6H866a6 6 0 0 1-6-6z" stroke="#3a414a" fill="#fff7a1"/><use xlink:href="#n" transform="matrix(1,0,0,1,872,1012) translate(4.481481481481474 53.77777777777778)"/><a xlink:href="http://calendar.php" target="_blank" transform="matrix(1,0,0,1,872,1012)"><path class="lucid-link lucid-hotspot lucid-overlay-hotspot" fill-opacity="0" d="M4.48 36h127.04v26.67H4.48z"/></a><path d="M601.46 1060h29.57" stroke="#3a414a" stroke-width="2" fill="none"/><path d="M601.5 1061h-1.04v-2h1.03z" stroke="#3a414a" stroke-width=".05" fill="#3a414a"/><path d="M646.3 1060l-14.27 4.64v-9.28z" stroke="#3a414a" stroke-width="2" fill="#3a414a"/><path d="M520 1121.46v33a6 6 0 0 0 6 6h298a6 6 0 0 0 6-6V1066a6 6 0 0 1 6-6h5.03" stroke="#3a414a" stroke-width="2" fill="none"/><path d="M521 1121.5h-2v-1.04h2z" stroke="#3a414a" stroke-width=".05" fill="#3a414a"/><path d="M856.3 1060l-14.27 4.64v-9.28z" stroke="#3a414a" stroke-width="2" fill="#3a414a"/><path d="M1601 648.54h-2v-9.84h2zm0-19.67h-2V609.2h2zm0-29.5h-2V579.7h2zm0-29.5h-2V550.2h2zm0-29.5h-2v-19.68h2zm0-29.5h-2v-19.68h2zm0-29.5h-2v-19.68h2zm0-29.52h-2V432.2h2zm0-29.5h-2v-19.67h2zm0-29.5h-2v-19.67h2zm0-29.5h-2v-19.67h2zm0-29.5h-2v-19.67h2zm0-29.5h-2v-19.68h2zm0-29.5h-2v-19.68h2zm0-29.5h-2v-19.68h2zm-5.94-46.28l1.1.27 1.02.42.94.57.83.72.72.83.57.94.42 1.02.26 1.06.08 1.06v9.87h-2v-9.8l-.06-.8-.2-.77-.3-.73-.4-.67-.5-.6-.6-.5-.67-.4-.73-.3-.72-.2H1585v-2zm-20 0v2h-19.9v-2zm-29.84 0v2h-19.9v-2zm-29.83 0v2h-19.9v-2zm-29.85 0v2h-19.88v-2zm-29.83 0v2h-19.9v-2zm-29.83 0v2l-19.9-.02v-2zm-29.84-.02v2h-19.9v-2zm-29.83 0v2h-19.9v-2zm-29.84 0v2h-19.9v-2zm-29.84 0v2h-19.9v-2zm-29.83 0v2h-19.9v-2zm-29.83 0v2H1227v-2zm-29.84-.02v2h-19.88v-2zm-29.83 0v2h-19.9v-2zm-29.83 0v2h-19.9v-2zm-29.83 0v2h-19.9v-2zm-29.84 0v2h-19.88v-2zm-29.83 0v2H1048v-2zm-29.83 0v2l-19.9-.02v-2zm-29.83-.02v2h-19.9v-2zm-29.83 0v2h-19.88v-2zm-29.83 0v2H928.7v-2zm-29.83 0v2h-19.9v-2zm-29.83 0v2h-9.93v-2z" stroke="#3a414a" stroke-width=".05" fill="#3a414a"/><path d="M1601 649.54h-2v-1.03h2z" fill="#3a414a"/><path d="M1601.03 649.56h-2.06v-1.07h2.06zm-2-1.02v.97h1.94v-.96z" stroke="#3a414a" stroke-width=".05" fill="#3a414a"/><path d="M877.97 204.64L863.7 200l14.27-4.64z" fill="#3a414a"/><path d="M878.97 206l-18.5-6 18.5-6zm-12.03-6l10.03 3.26v-6.52z" stroke="#3a414a" stroke-width=".05" fill="#3a414a"/><path d="M960 841.46V914a6 6 0 0 0 6 6h268a6 6 0 0 1 6 6v55.03" stroke="#3a414a" stroke-width="2" fill="none"/><path d="M961 841.5h-2v-1.04h2z" stroke="#3a414a" stroke-width=".05" fill="#3a414a"/><path d="M1240 996.3l-4.64-14.27h9.28z" stroke="#3a414a" stroke-width="2" fill="#3a414a"/><path d="M1160 1006a6 6 0 0 1 6-6h148a6 6 0 0 1 6 6v108a6 6 0 0 1-6 6h-148a6 6 0 0 1-6-6z" stroke="#3a414a" fill="#fff7a1"/><use xlink:href="#o" transform="matrix(1,0,0,1,1172,1012) translate(-8.481481481481481 52.44444444444444)"/><path d="M960 841.46V914a6 6 0 0 0 6 6h488a6 6 0 0 1 6 6v55.03" stroke="#3a414a" stroke-width="2" fill="none"/><path d="M961 841.5h-2v-1.04h2z" stroke="#3a414a" stroke-width=".05" fill="#3a414a"/><path d="M1460 996.3l-4.64-14.27h9.28z" stroke="#3a414a" stroke-width="2" fill="#3a414a"/><path d="M1380 1006a6 6 0 0 1 6-6h148a6 6 0 0 1 6 6v108a6 6 0 0 1-6 6h-148a6 6 0 0 1-6-6z" stroke="#3a414a" fill="#fff7a1"/><use xlink:href="#p" transform="matrix(1,0,0,1,1392,1012) translate(0.8086419753086318 53.77777777777778)"/><a xlink:href="http://joingroup.php" target="_blank" transform="matrix(1,0,0,1,1392,1012)"><path class="lucid-link lucid-hotspot lucid-overlay-hotspot" fill-opacity="0" d="M.8 36h134.4v26.67H.8z"/></a><path d="M1541.46 1060h9.17m9.18 0h18.35m9.17 0h18.34m9.17 0h9.17l.94-.07.92-.22.87-.35.8-.5.7-.6.63-.72.5-.8.35-.88.23-.9v-9.86m0-9.86v-19.7m0-9.86l.02-19.7m0-9.85v-19.7m0-9.86v-19.7m.02-9.85v-19.7m0-9.86v-19.7m0-9.85l.02-19.7m0-9.84v-19.7m0-9.86v-9.85" stroke="#3a414a" stroke-width="2" fill="none"/><path d="M1541.5 1061h-1.04v-2h1.03z" stroke="#3a414a" stroke-width=".05" fill="#3a414a"/><path d="M1630 773.68l4.64 14.27h-9.27z" stroke="#3a414a" stroke-width="2" fill="#3a414a"/><path d="M1240 1121.46v11m0 11v11l.07.94.22.92.35.87.5.8.6.7.72.62.8.5.88.35.9.22h10.34m10.32 0h20.67m10.32 0h20.66m10.34 0h20.66m10.33 0h20.67m10.34.02h20.67m10.33 0h20.66m10.34 0h20.66m10.33 0l20.65.02m10.34 0h20.65m10.33 0h20.67m10.33 0h20.66m10.33.02h20.67m10.33 0H1648l.94-.07.9-.23.88-.36.8-.48.72-.6.6-.73.5-.8.37-.88.23-.92v-10.18m0-10.18v-20.36m0-10.18v-20.35m0-10.18l.02-20.36m0-10.17v-20.36m0-10.18v-20.37m0-10.18V962m.02-10.2v-20.35m0-10.18V900.9m0-10.17v-20.36m0-10.17l.02-20.36m0-10.18V809.3m0-10.18v-10.18" stroke="#3a414a" stroke-width="2" fill="none"/><path d="M1241 1121.5h-2v-1.04h2z" stroke="#3a414a" stroke-width=".05" fill="#3a414a"/><path d="M1654 773.67l4.63 14.27h-9.27z" stroke="#3a414a" stroke-width="2" fill="#3a414a"/><path d="M940 1121.46v8.76m0 8.76v17.5m0 8.76v8.76l.07.94.22.9.35.88.5.8.6.72.72.6.8.5.88.37.9.23h10.05m10.04 0h20.07m10.05 0h20.08m10.03 0h20.08m10.04 0h20.07m10.04 0h20.06m10.04 0l20.08.02m10.04 0h20.07m10.03 0H1196m10.04 0h20.08m10.03 0h20.08m10.04 0h20.07m10.04 0h20.08m10.03.02h20.07m10.04 0h20.08m10.04 0h20.07m10.03 0h20.08m10.05 0h20.07m10.04 0h20.07m10.04 0l20.08.02m10.03 0h20.08m10.04 0h20.07m10.04 0h20.1m10.02 0h20.08m10.04 0h10.03l.94-.07.93-.22.87-.35.8-.5.72-.6.6-.72.5-.8.36-.88.22-.9v-9.9m0-9.9v-19.8m0-9.9v-19.8m.02-9.9v-19.8m0-9.9v-19.78m0-9.9v-19.8m0-9.9l.02-19.8m0-9.9V957.2m0-9.9v-19.8m0-9.9v-19.8m.02-9.9v-19.8m0-9.9v-19.78m0-9.9v-19.8m0-9.9v-9.9" stroke="#3a414a" stroke-width="2" fill="none"/><path d="M941 1121.5h-2v-1.04h2z" stroke="#3a414a" stroke-width=".05" fill="#3a414a"/><path d="M1673.77 773.66l4.64 14.27h-9.26z" stroke="#3a414a" stroke-width="2" fill="#3a414a"/><path d="M730 1121.46v12.1m0 12.08v24.18m0 12.1V1194l.07.94.22.9.35.88.5.8.6.72.72.6.8.5.88.37.9.23h10m10 0H775m10 0h19.97m9.98 0h19.98m10 0h19.97m10 0h19.96m9.98 0h19.98m10 0h19.97m10 0h19.97m10 0l19.97.02m10 0h19.97m10 0h19.97m10 0h19.98m10 0h19.97m9.98 0h19.98m10 0h19.98m10 0h19.97m10 0h19.97m10 0l19.97.02m9.98 0h19.98m10 0h19.97m10 0h19.97m10 0h19.96m10 0h19.97m10 0h19.97m10 0h19.97m10 0h19.97m10 0l19.97.02m10 0h19.98m10 0h19.97m10 0h19.96m10 0h19.98m10 0h19.97m10 0H1734m10 0h9.98l.94-.07.9-.22.88-.35.8-.5.72-.6.6-.72.5-.8.37-.88.23-.9v-10.22m0-10.2v-20.42m0-10.2v-20.4m0-10.22v-20.4m.02-10.22v-20.42m0-10.2v-20.42m0-10.2V1001m0-10.2v-20.42m.02-10.2v-20.43m0-10.2v-20.42m0-10.2V878.5m0-10.2l.02-20.4m0-10.22v-20.4m0-10.22v-20.42m0-10.2v-10.2l-.07-.95-.22-.92-.35-.87-.5-.8-.6-.7-.72-.62-.8-.5-.88-.36-.9-.22h-9.33m-9.33-.02l-18.65-.03m-9.33 0l-9.32-.02" stroke="#3a414a" stroke-width="2" fill="none"/><path d="M731 1121.5h-2v-1.04h2z" stroke="#3a414a" stroke-width=".05" fill="#3a414a"/><path d="M1683.73 760.23l14.27-4.64v9.27z" stroke="#3a414a" stroke-width="2" fill="#3a414a"/><path d="M520 1121.46v10.3m0 10.27v20.56m0 10.27v20.57m0 10.28V1214l.07.94.22.9.35.88.5.8.6.72.72.6.8.5.88.37.9.23h9.92m9.92 0h19.8m9.92 0h19.83m9.9 0h19.83m9.92 0h19.82m9.9 0h19.84m9.9 0h19.83m9.9 0h19.83m9.9 0h19.84m9.9 0h19.83m9.92 0h19.82m9.9 0l19.84.02m9.9 0h19.83m9.93 0h19.82m9.9 0h19.84m9.9 0h19.82m9.92 0h19.82m9.9 0h19.84m9.9 0h19.83m9.92 0h19.82m9.9 0h19.84m9.92 0h19.82m9.92 0l19.82.02m9.9 0h19.84m9.9 0h19.83m9.92 0h19.82m9.9 0h19.83m9.9 0h19.83m9.9 0h19.84m9.9 0h19.84m9.9 0h19.83m9.9 0h19.84m9.92 0h19.83m9.9 0h19.83m9.9.02h19.84m9.9 0h19.84m9.9 0h19.83m9.9 0h19.83m9.9 0h19.84m9.9 0h19.83m9.9 0h19.84m9.9 0h19.84m9.9 0h9.92l.94-.07.9-.22.88-.35.8-.5.72-.6.6-.72.5-.8.37-.88.23-.9v-9.84m0-9.8v-19.66m0-9.83v-19.64m0-9.82v-19.65m0-9.84l.02-19.65m0-9.8v-19.66m0-9.82v-19.65m0-9.83V998.8m0-9.83v-19.65m.02-9.83v-19.66m0-9.82v-19.65m0-9.83V880.9m0-9.83v-19.65m0-9.83l.02-19.66m0-9.82v-19.65m0-9.83V763m0-9.83v-9.83l-.07-.94-.22-.9-.35-.88-.5-.8-.6-.72-.72-.6-.8-.5-.88-.36-.9-.22h-8.45m-8.44-.02l-16.88-.02m-8.44 0l-16.88-.02m-8.44 0l-8.44-.02" stroke="#3a414a" stroke-width="2" fill="none"/><path d="M521 1121.5h-2v-1.04h2z" stroke="#3a414a" stroke-width=".05" fill="#3a414a"/><path d="M1683.72 737.34l14.26-4.63V742z" stroke="#3a414a" stroke-width="2" fill="#3a414a"/><path d="M310 1121.46v9.38m0 9.38v18.76m0 9.37v18.76m0 9.4v18.74m0 9.38v9.38l.07.94.22.9.35.88.5.8.6.72.72.6.8.5.88.37.9.23h10.07m10.06 0h20.12m10.07 0h20.12m10.05 0h20.12m10.06 0h20.12m10.06 0h20.13m10.07 0h20.12m10.06 0h20.12m10.06 0h20.12m10.06 0h20.12m10.06 0h20.13m10.06 0h20.13m10.06 0h20.1m10.07.02h20.12m10.05 0h20.13m10.06 0h20.12m10.06 0h20.12m10.06 0h20.12m10.06 0h20.13m10.07 0h20.12m10.05 0h20.12m10.06 0h20.12m10.06 0h20.14m10.06 0h20.12m10.06 0h20.12m10.06 0h20.12m10.06 0l20.13.02m10.06 0h20.12m10.06 0h20.13m10.06 0h20.1m10.07 0h20.12m10.06 0h20.12m10.06 0h20.12m10.06 0h20.12m10.06 0h20.12m10.07 0h20.1m10.07 0h20.12m10.05 0h20.12m10.06 0h20.12m10.06 0l20.14.02m10.06 0h20.12m10.06 0h20.12m10.06 0h20.12m10.06 0h20.13m10.06 0h20.12m10.06 0h20.13m10.06 0h20.1m10.07 0h20.13m10.06 0h20.12m10.06 0H1794l.94-.07.9-.22.88-.35.8-.5.72-.6.6-.72.5-.8.37-.88.23-.9v-10.2m0-10.16v-20.36m0-10.18v-20.35m0-10.16v-20.35m0-10.2v-20.34m.02-10.18v-20.35m0-10.17v-20.35m0-10.17v-20.35m0-10.17v-20.34m0-10.18l.02-20.35m0-10.17V919.5m0-10.17v-20.35m0-10.18v-20.35m0-10.17v-20.35m.02-10.18V797.4m0-10.17v-20.35m0-10.18v-20.35m0-10.17V716l-.07-.94-.22-.9-.35-.88-.5-.8-.6-.72-.72-.6-.8-.5-.88-.37-.9-.23h-10.68m-10.66 0l-21.32-.03m-10.66 0l-21.33-.02m-10.67 0l-10.66-.02" stroke="#3a414a" stroke-width="2" fill="none"/><path d="M311 1121.5h-2v-1.04h2z" stroke="#3a414a" stroke-width=".05" fill="#3a414a"/><path d="M1683.7 710l14.27-4.64v9.28z" stroke="#3a414a" stroke-width="2" fill="#3a414a"/><path d="M310 998.54v-52.28a6 6 0 0 1 6-6h276.14a6 6 0 0 0 6-6V899.5" stroke="#3a414a" stroke-width="2" fill="none"/><path d="M311 999.54h-2v-1.03h2z" stroke="#3a414a" stroke-width=".05" fill="#3a414a"/><path d="M598.14 884.22l4.64 14.27h-9.28z" stroke="#3a414a" stroke-width="2" fill="#3a414a"/><path d="M600 841.46V914a6 6 0 0 1-6 6H106a6 6 0 0 0-6 6v55.03" stroke="#3a414a" stroke-width="2" fill="none"/><path d="M601 841.5h-2v-1.04h2z" stroke="#3a414a" stroke-width=".05" fill="#3a414a"/><path d="M100 996.3l-4.64-14.27h9.28z" stroke="#3a414a" stroke-width="2" fill="#3a414a"/><path d="M20 1006a6 6 0 0 1 6-6h148a6 6 0 0 1 6 6v108a6 6 0 0 1-6 6H26a6 6 0 0 1-6-6z" stroke="#3a414a" fill="#fff7a1"/><use xlink:href="#q" transform="matrix(1,0,0,1,32,1012) translate(16.179012345679006 53.77777777777778)"/><a xlink:href="http://delete.php" target="_blank" transform="matrix(1,0,0,1,32,1012)"><path class="lucid-link lucid-hotspot lucid-overlay-hotspot" fill-opacity="0" d="M16.18 36h103.64v26.67H16.18z"/></a><path d="M824.67 261.44V374a6 6 0 0 0 6 6h130.36" stroke="#3a414a" stroke-width="2" fill="none"/><path d="M825.67 261.47h-2v-1.03h2z" stroke="#3a414a" stroke-width=".05" fill="#3a414a"/><path d="M976.3 380l-14.27 4.64v-9.28z" stroke="#3a414a" stroke-width="2" fill="#3a414a"/><path d="M980 326a6 6 0 0 1 6-6h188a6 6 0 0 1 6 6v108a6 6 0 0 1-6 6H986a6 6 0 0 1-6-6z" stroke="#3a414a" fill="#fff7a1"/><g><use xlink:href="#r" transform="matrix(1,0,0,1,992,332) translate(2.4753086419753174 53.77777777777778)"/></g><defs><path fill="#3a414a" d="M24-231v-30h32v30H24zM24 0v-190h32V0H24" id="s"/><path fill="#3a414a" d="M117-194c89-4 53 116 60 194h-32v-121c0-31-8-49-39-48C34-167 62-67 57 0H25l-1-190h30c1 10-1 24 2 32 11-22 29-35 61-36" id="t"/><path fill="#3a414a" d="M85-194c31 0 48 13 60 33l-1-100h32l1 261h-30c-2-10 0-23-3-31C134-8 116 4 85 4 32 4 16-35 15-94c0-66 23-100 70-100zm9 24c-40 0-46 34-46 75 0 40 6 74 45 74 42 0 51-32 51-76 0-42-9-74-50-73" id="u"/><path fill="#3a414a" d="M100-194c63 0 86 42 84 106H49c0 40 14 67 53 68 26 1 43-12 49-29l28 8c-11 28-37 45-77 45C44 4 14-33 15-96c1-61 26-98 85-98zm52 81c6-60-76-77-97-28-3 7-6 17-6 28h103" id="v"/><path fill="#3a414a" d="M141 0L90-78 38 0H4l68-98-65-92h35l48 74 47-74h35l-64 92 68 98h-35" id="w"/><path fill="#3a414a" d="M33 0v-38h34V0H33" id="x"/><path fill="#3a414a" d="M115-194c55 1 70 41 70 98S169 2 115 4C84 4 66-9 55-30l1 105H24l-1-265h31l2 30c10-21 28-34 59-34zm-8 174c40 0 45-34 45-75s-6-73-45-74c-42 0-51 32-51 76 0 43 10 73 51 73" id="y"/><path fill="#3a414a" d="M106-169C34-169 62-67 57 0H25v-261h32l-1 103c12-21 28-36 61-36 89 0 53 116 60 194h-32v-121c2-32-8-49-39-48" id="z"/><g id="a"><use transform="matrix(0.06172839506172839,0,0,0.06172839506172839,0,0)" xlink:href="#s"/><use transform="matrix(0.06172839506172839,0,0,0.06172839506172839,4.876543209876543,0)" xlink:href="#t"/><use transform="matrix(0.06172839506172839,0,0,0.06172839506172839,17.22222222222222,0)" xlink:href="#u"/><use transform="matrix(0.06172839506172839,0,0,0.06172839506172839,29.5679012345679,0)" xlink:href="#v"/><use transform="matrix(0.06172839506172839,0,0,0.06172839506172839,41.913580246913575,0)" xlink:href="#w"/><use transform="matrix(0.06172839506172839,0,0,0.06172839506172839,53.02469135802468,0)" xlink:href="#x"/><use transform="matrix(0.06172839506172839,0,0,0.06172839506172839,59.197530864197525,0)" xlink:href="#y"/><use transform="matrix(0.06172839506172839,0,0,0.06172839506172839,71.5432098765432,0)" xlink:href="#z"/><use transform="matrix(0.06172839506172839,0,0,0.06172839506172839,83.88888888888889,0)" xlink:href="#y"/></g><path fill="#3a414a" d="M114-163C36-179 61-72 57 0H25l-1-190h30c1 12-1 29 2 39 6-27 23-49 58-41v29" id="A"/><path fill="#3a414a" d="M177-190C167-65 218 103 67 71c-23-6-38-20-44-43l32-5c15 47 100 32 89-28v-30C133-14 115 1 83 1 29 1 15-40 15-95c0-56 16-97 71-98 29-1 48 16 59 35 1-10 0-23 2-32h30zM94-22c36 0 50-32 50-73 0-42-14-75-50-75-39 0-46 34-46 75s6 73 46 73" id="B"/><path fill="#3a414a" d="M135-143c-3-34-86-38-87 0 15 53 115 12 119 90S17 21 10-45l28-5c4 36 97 45 98 0-10-56-113-15-118-90-4-57 82-63 122-42 12 7 21 19 24 35" id="C"/><path fill="#3a414a" d="M59-47c-2 24 18 29 38 22v24C64 9 27 4 27-40v-127H5v-23h24l9-43h21v43h35v23H59v120" id="D"/><g id="b"><use transform="matrix(0.06172839506172839,0,0,0.06172839506172839,0,0)" xlink:href="#A"/><use transform="matrix(0.06172839506172839,0,0,0.06172839506172839,7.345679012345679,0)" xlink:href="#v"/><use transform="matrix(0.06172839506172839,0,0,0.06172839506172839,19.691358024691358,0)" xlink:href="#s"/><use transform="matrix(0.06172839506172839,0,0,0.06172839506172839,24.5679012345679,0)" xlink:href="#B"/><use transform="matrix(0.06172839506172839,0,0,0.06172839506172839,36.913580246913575,0)" xlink:href="#C"/><use transform="matrix(0.06172839506172839,0,0,0.06172839506172839,48.02469135802468,0)" xlink:href="#D"/><use transform="matrix(0.06172839506172839,0,0,0.06172839506172839,54.197530864197525,0)" xlink:href="#v"/><use transform="matrix(0.06172839506172839,0,0,0.06172839506172839,66.5432098765432,0)" xlink:href="#A"/><use transform="matrix(0.06172839506172839,0,0,0.06172839506172839,72.65432098765432,0)" xlink:href="#x"/><use transform="matrix(0.06172839506172839,0,0,0.06172839506172839,78.82716049382715,0)" xlink:href="#y"/><use transform="matrix(0.06172839506172839,0,0,0.06172839506172839,91.17283950617283,0)" xlink:href="#z"/><use transform="matrix(0.06172839506172839,0,0,0.06172839506172839,103.51851851851852,0)" xlink:href="#y"/><path fill="#8080ff" d="M-1.1 1.54h118.08v1.63H-1.12z"/></g><path fill="#3a414a" d="M24 0v-261h32V0H24" id="E"/><path fill="#3a414a" d="M100-194c62-1 85 37 85 99 1 63-27 99-86 99S16-35 15-95c0-66 28-99 85-99zM99-20c44 1 53-31 53-75 0-43-8-75-51-75s-53 32-53 75 10 74 51 75" id="F"/><g id="c"><use transform="matrix(0.06172839506172839,0,0,0.06172839506172839,0,0)" xlink:href="#E"/><use transform="matrix(0.06172839506172839,0,0,0.06172839506172839,4.876543209876543,0)" xlink:href="#F"/><use transform="matrix(0.06172839506172839,0,0,0.06172839506172839,17.22222222222222,0)" xlink:href="#B"/><use transform="matrix(0.06172839506172839,0,0,0.06172839506172839,29.5679012345679,0)" xlink:href="#s"/><use transform="matrix(0.06172839506172839,0,0,0.06172839506172839,34.44444444444444,0)" xlink:href="#t"/><use transform="matrix(0.06172839506172839,0,0,0.06172839506172839,46.79012345679012,0)" xlink:href="#x"/><use transform="matrix(0.06172839506172839,0,0,0.06172839506172839,52.96296296296296,0)" xlink:href="#y"/><use transform="matrix(0.06172839506172839,0,0,0.06172839506172839,65.30864197530865,0)" xlink:href="#z"/><use transform="matrix(0.06172839506172839,0,0,0.06172839506172839,77.65432098765433,0)" xlink:href="#y"/><path fill="#8080ff" d="M-1.1 1.54h92.2v1.63H-1.1z"/></g><path fill="#333" d="M169-182c-1-43-94-46-97-3 18 66 151 10 154 114 3 95-165 93-204 36-6-8-10-19-12-30l50-8c3 46 112 56 116 5-17-69-150-10-154-114-4-87 153-88 188-35 5 8 8 18 10 28" id="G"/><path fill="#333" d="M85 4C-2 5 27-109 22-190h50c7 57-23 150 33 157 60-5 35-97 40-157h50l1 190h-47c-2-12 1-28-3-38-12 25-28 42-61 42" id="H"/><path fill="#333" d="M190-63c-7 42-38 67-86 67-59 0-84-38-90-98-12-110 154-137 174-36l-49 2c-2-19-15-32-35-32-30 0-35 28-38 64-6 74 65 87 74 30" id="I"/><path fill="#333" d="M185-48c-13 30-37 53-82 52C43 2 14-33 14-96s30-98 90-98c62 0 83 45 84 108H66c0 31 8 55 39 56 18 0 30-7 34-22zm-45-69c5-46-57-63-70-21-2 6-4 13-4 21h74" id="J"/><path fill="#333" d="M137-138c1-29-70-34-71-4 15 46 118 7 119 86 1 83-164 76-172 9l43-7c4 19 20 25 44 25 33 8 57-30 24-41C81-84 22-81 20-136c-2-80 154-74 161-7" id="K"/><path fill="#333" d="M121-226c-27-7-43 5-38 36h38v33H83V0H34v-157H6v-33h28c-9-59 32-81 87-68v32" id="L"/><path fill="#333" d="M25 0v-261h50V0H25" id="M"/><path fill="#333" d="M123 10C108 53 80 86 19 72V37c35 8 53-11 59-39L3-190h52l48 148c12-52 28-100 44-148h51" id="N"/><g id="d"><use transform="matrix(0.04938271604938272,0,0,0.04938271604938272,0,0)" xlink:href="#G"/><use transform="matrix(0.04938271604938272,0,0,0.04938271604938272,11.851851851851853,0)" xlink:href="#H"/><use transform="matrix(0.04938271604938272,0,0,0.04938271604938272,22.666666666666668,0)" xlink:href="#I"/><use transform="matrix(0.04938271604938272,0,0,0.04938271604938272,32.543209876543216,0)" xlink:href="#I"/><use transform="matrix(0.04938271604938272,0,0,0.04938271604938272,42.41975308641976,0)" xlink:href="#J"/><use transform="matrix(0.04938271604938272,0,0,0.04938271604938272,52.2962962962963,0)" xlink:href="#K"/><use transform="matrix(0.04938271604938272,0,0,0.04938271604938272,62.17283950617284,0)" xlink:href="#K"/><use transform="matrix(0.04938271604938272,0,0,0.04938271604938272,72.0493827160494,0)" xlink:href="#L"/><use transform="matrix(0.04938271604938272,0,0,0.04938271604938272,77.92592592592594,0)" xlink:href="#H"/><use transform="matrix(0.04938271604938272,0,0,0.04938271604938272,88.74074074074075,0)" xlink:href="#M"/><use transform="matrix(0.04938271604938272,0,0,0.04938271604938272,93.67901234567901,0)" xlink:href="#M"/><use transform="matrix(0.04938271604938272,0,0,0.04938271604938272,98.61728395061729,0)" xlink:href="#N"/></g><path fill="#333" d="M110-194c64 0 96 36 96 99 0 64-35 99-97 99-61 0-95-36-95-99 0-62 34-99 96-99zm-1 164c35 0 45-28 45-65 0-40-10-65-43-65-34 0-45 26-45 65 0 36 10 65 43 65" id="O"/><path fill="#333" d="M195-6C206 82 75 100 31 46c-4-6-6-13-8-21l49-6c3 16 16 24 34 25 40 0 42-37 40-79-11 22-30 35-61 35-53 0-70-43-70-97 0-56 18-96 73-97 30 0 46 14 59 34l2-30h47zm-90-29c32 0 41-27 41-63 0-35-9-62-40-62-32 0-39 29-40 63 0 36 9 62 39 62" id="P"/><path fill="#333" d="M88-194c31-1 46 15 58 34l-1-101h50l1 261h-48c-2-10 0-23-3-31C134-8 116 4 84 4 32 4 16-41 15-95c0-56 19-97 73-99zm17 164c33 0 40-30 41-66 1-37-9-64-41-64s-38 30-39 65c0 43 13 65 39 65" id="Q"/><g id="e"><use transform="matrix(0.04938271604938272,0,0,0.04938271604938272,0,0)" xlink:href="#M"/><use transform="matrix(0.04938271604938272,0,0,0.04938271604938272,4.938271604938272,0)" xlink:href="#O"/><use transform="matrix(0.04938271604938272,0,0,0.04938271604938272,15.753086419753087,0)" xlink:href="#P"/><use transform="matrix(0.04938271604938272,0,0,0.04938271604938272,26.567901234567902,0)" xlink:href="#P"/><use transform="matrix(0.04938271604938272,0,0,0.04938271604938272,37.382716049382715,0)" xlink:href="#J"/><use transform="matrix(0.04938271604938272,0,0,0.04938271604938272,47.25925925925926,0)" xlink:href="#Q"/></g><path fill="#333" d="M25-224v-37h50v37H25zM25 0v-190h50V0H25" id="R"/><path fill="#333" d="M135-194c87-1 58 113 63 194h-50c-7-57 23-157-34-157-59 0-34 97-39 157H25l-1-190h47c2 12-1 28 3 38 12-26 28-41 61-42" id="S"/><g id="f"><use transform="matrix(0.04938271604938272,0,0,0.04938271604938272,0,0)" xlink:href="#R"/><use transform="matrix(0.04938271604938272,0,0,0.04938271604938272,4.938271604938272,0)" xlink:href="#S"/></g><path fill="#3a414a" d="M210-169c-67 3-38 105-44 169h-31v-121c0-29-5-50-35-48C34-165 62-65 56 0H25l-1-190h30c1 10-1 24 2 32 10-44 99-50 107 0 11-21 27-35 58-36 85-2 47 119 55 194h-31v-121c0-29-5-49-35-48" id="T"/><path fill="#3a414a" d="M141-36C126-15 110 5 73 4 37 3 15-17 15-53c-1-64 63-63 125-63 3-35-9-54-41-54-24 1-41 7-42 31l-33-3c5-37 33-52 76-52 45 0 72 20 72 64v82c-1 20 7 32 28 27v20c-31 9-61-2-59-35zM48-53c0 20 12 33 32 33 41-3 63-29 60-74-43 2-92-5-92 41" id="U"/><g id="g"><use transform="matrix(0.06172839506172839,0,0,0.06172839506172839,0,0)" xlink:href="#z"/><use transform="matrix(0.06172839506172839,0,0,0.06172839506172839,12.345679012345679,0)" xlink:href="#F"/><use transform="matrix(0.06172839506172839,0,0,0.06172839506172839,24.691358024691358,0)" xlink:href="#T"/><use transform="matrix(0.06172839506172839,0,0,0.06172839506172839,43.148148148148145,0)" xlink:href="#v"/><use transform="matrix(0.06172839506172839,0,0,0.06172839506172839,55.49382716049382,0)" xlink:href="#y"/><use transform="matrix(0.06172839506172839,0,0,0.06172839506172839,67.8395061728395,0)" xlink:href="#U"/><use transform="matrix(0.06172839506172839,0,0,0.06172839506172839,80.18518518518519,0)" xlink:href="#B"/><use transform="matrix(0.06172839506172839,0,0,0.06172839506172839,92.53086419753087,0)" xlink:href="#v"/><use transform="matrix(0.06172839506172839,0,0,0.06172839506172839,104.87654320987656,0)" xlink:href="#x"/><use transform="matrix(0.06172839506172839,0,0,0.06172839506172839,111.0493827160494,0)" xlink:href="#y"/><use transform="matrix(0.06172839506172839,0,0,0.06172839506172839,123.39506172839508,0)" xlink:href="#z"/><use transform="matrix(0.06172839506172839,0,0,0.06172839506172839,135.74074074074076,0)" xlink:href="#y"/><path fill="#8080ff" d="M-1.1 1.54h150.3v1.63H-1.1z"/></g><path fill="#3a414a" d="M179-190L93 31C79 59 56 82 12 73V49c39 6 53-20 64-50L1-190h34L92-34l54-156h33" id="V"/><g id="h"><use transform="matrix(0.06172839506172839,0,0,0.06172839506172839,0,0)" xlink:href="#T"/><use transform="matrix(0.06172839506172839,0,0,0.06172839506172839,18.456790123456788,0)" xlink:href="#V"/><use transform="matrix(0.06172839506172839,0,0,0.06172839506172839,29.5679012345679,0)" xlink:href="#y"/><use transform="matrix(0.06172839506172839,0,0,0.06172839506172839,41.913580246913575,0)" xlink:href="#v"/><use transform="matrix(0.06172839506172839,0,0,0.06172839506172839,54.25925925925925,0)" xlink:href="#D"/><use transform="matrix(0.06172839506172839,0,0,0.06172839506172839,60.432098765432094,0)" xlink:href="#C"/><use transform="matrix(0.06172839506172839,0,0,0.06172839506172839,71.5432098765432,0)" xlink:href="#x"/><use transform="matrix(0.06172839506172839,0,0,0.06172839506172839,77.71604938271604,0)" xlink:href="#y"/><use transform="matrix(0.06172839506172839,0,0,0.06172839506172839,90.06172839506172,0)" xlink:href="#z"/><use transform="matrix(0.06172839506172839,0,0,0.06172839506172839,102.4074074074074,0)" xlink:href="#y"/><path fill="#8080ff" d="M-1.1 1.54h116.97v1.63H-1.1z"/></g><path fill="#3a414a" d="M84 4C-5 8 30-112 23-190h32v120c0 31 7 50 39 49 72-2 45-101 50-169h31l1 190h-30c-1-10 1-25-2-33-11 22-28 36-60 37" id="W"/><g id="i"><use transform="matrix(0.06172839506172839,0,0,0.06172839506172839,0,0)" xlink:href="#T"/><use transform="matrix(0.06172839506172839,0,0,0.06172839506172839,18.456790123456788,0)" xlink:href="#V"/><use transform="matrix(0.06172839506172839,0,0,0.06172839506172839,29.5679012345679,0)" xlink:href="#B"/><use transform="matrix(0.06172839506172839,0,0,0.06172839506172839,41.913580246913575,0)" xlink:href="#A"/><use transform="matrix(0.06172839506172839,0,0,0.06172839506172839,49.25925925925925,0)" xlink:href="#F"/><use transform="matrix(0.06172839506172839,0,0,0.06172839506172839,61.60493827160493,0)" xlink:href="#W"/><use transform="matrix(0.06172839506172839,0,0,0.06172839506172839,73.9506172839506,0)" xlink:href="#y"/><use transform="matrix(0.06172839506172839,0,0,0.06172839506172839,86.29629629629629,0)" xlink:href="#C"/><use transform="matrix(0.06172839506172839,0,0,0.06172839506172839,97.4074074074074,0)" xlink:href="#x"/><use transform="matrix(0.06172839506172839,0,0,0.06172839506172839,103.58024691358024,0)" xlink:href="#y"/><use transform="matrix(0.06172839506172839,0,0,0.06172839506172839,115.92592592592592,0)" xlink:href="#z"/><use transform="matrix(0.06172839506172839,0,0,0.06172839506172839,128.2716049382716,0)" xlink:href="#y"/><path fill="#8080ff" d="M-1.1 1.54h142.83v1.63H-1.1z"/></g><g id="j"><use transform="matrix(0.06172839506172839,0,0,0.06172839506172839,0,0)" xlink:href="#E"/><use transform="matrix(0.06172839506172839,0,0,0.06172839506172839,4.876543209876543,0)" xlink:href="#F"/><use transform="matrix(0.06172839506172839,0,0,0.06172839506172839,17.22222222222222,0)" xlink:href="#B"/><use transform="matrix(0.06172839506172839,0,0,0.06172839506172839,29.5679012345679,0)" xlink:href="#F"/><use transform="matrix(0.06172839506172839,0,0,0.06172839506172839,41.913580246913575,0)" xlink:href="#W"/><use transform="matrix(0.06172839506172839,0,0,0.06172839506172839,54.25925925925925,0)" xlink:href="#D"/><use transform="matrix(0.06172839506172839,0,0,0.06172839506172839,60.432098765432094,0)" xlink:href="#x"/><use transform="matrix(0.06172839506172839,0,0,0.06172839506172839,66.60493827160494,0)" xlink:href="#y"/><use transform="matrix(0.06172839506172839,0,0,0.06172839506172839,78.95061728395062,0)" xlink:href="#z"/><use transform="matrix(0.06172839506172839,0,0,0.06172839506172839,91.2962962962963,0)" xlink:href="#y"/></g><path fill="#3a414a" d="M206 0h-36l-40-164L89 0H53L-1-190h32L70-26l43-164h34l41 164 42-164h31" id="X"/><path fill="#3a414a" d="M-5 72V49h209v23H-5" id="Y"/><g id="k"><use transform="matrix(0.06172839506172839,0,0,0.06172839506172839,0,0)" xlink:href="#t"/><use transform="matrix(0.06172839506172839,0,0,0.06172839506172839,12.345679012345679,0)" xlink:href="#v"/><use transform="matrix(0.06172839506172839,0,0,0.06172839506172839,24.691358024691358,0)" xlink:href="#X"/><use transform="matrix(0.06172839506172839,0,0,0.06172839506172839,40.67901234567901,0)" xlink:href="#Y"/><use transform="matrix(0.06172839506172839,0,0,0.06172839506172839,53.02469135802469,0)" xlink:href="#y"/><use transform="matrix(0.06172839506172839,0,0,0.06172839506172839,65.37037037037037,0)" xlink:href="#v"/><use transform="matrix(0.06172839506172839,0,0,0.06172839506172839,77.71604938271605,0)" xlink:href="#D"/><use transform="matrix(0.06172839506172839,0,0,0.06172839506172839,83.88888888888889,0)" xlink:href="#x"/><use transform="matrix(0.06172839506172839,0,0,0.06172839506172839,90.06172839506172,0)" xlink:href="#y"/><use transform="matrix(0.06172839506172839,0,0,0.06172839506172839,102.4074074074074,0)" xlink:href="#z"/><use transform="matrix(0.06172839506172839,0,0,0.06172839506172839,114.75308641975309,0)" xlink:href="#y"/></g><g id="l"><use transform="matrix(0.06172839506172839,0,0,0.06172839506172839,0,0)" xlink:href="#y"/><use transform="matrix(0.06172839506172839,0,0,0.06172839506172839,12.345679012345679,0)" xlink:href="#v"/><use transform="matrix(0.06172839506172839,0,0,0.06172839506172839,24.691358024691358,0)" xlink:href="#D"/><use transform="matrix(0.06172839506172839,0,0,0.06172839506172839,30.864197530864196,0)" xlink:href="#u"/><use transform="matrix(0.06172839506172839,0,0,0.06172839506172839,43.20987654320987,0)" xlink:href="#v"/><use transform="matrix(0.06172839506172839,0,0,0.06172839506172839,55.55555555555555,0)" xlink:href="#D"/><use transform="matrix(0.06172839506172839,0,0,0.06172839506172839,61.72839506172839,0)" xlink:href="#U"/><use transform="matrix(0.06172839506172839,0,0,0.06172839506172839,74.07407407407408,0)" xlink:href="#s"/><use transform="matrix(0.06172839506172839,0,0,0.06172839506172839,78.95061728395062,0)" xlink:href="#E"/><use transform="matrix(0.06172839506172839,0,0,0.06172839506172839,83.82716049382717,0)" xlink:href="#C"/><use transform="matrix(0.06172839506172839,0,0,0.06172839506172839,94.93827160493828,0)" xlink:href="#x"/><use transform="matrix(0.06172839506172839,0,0,0.06172839506172839,101.11111111111111,0)" xlink:href="#y"/><use transform="matrix(0.06172839506172839,0,0,0.06172839506172839,113.4567901234568,0)" xlink:href="#z"/><use transform="matrix(0.06172839506172839,0,0,0.06172839506172839,125.80246913580248,0)" xlink:href="#y"/><path fill="#8080ff" d="M-1.1 1.54h140.36v1.63H-1.1z"/></g><g id="m"><use transform="matrix(0.06172839506172839,0,0,0.06172839506172839,0,0)" xlink:href="#T"/><use transform="matrix(0.06172839506172839,0,0,0.06172839506172839,18.456790123456788,0)" xlink:href="#W"/><use transform="matrix(0.06172839506172839,0,0,0.06172839506172839,30.80246913580247,0)" xlink:href="#E"/><use transform="matrix(0.06172839506172839,0,0,0.06172839506172839,35.67901234567901,0)" xlink:href="#D"/><use transform="matrix(0.06172839506172839,0,0,0.06172839506172839,41.851851851851855,0)" xlink:href="#s"/><use transform="matrix(0.06172839506172839,0,0,0.06172839506172839,46.7283950617284,0)" xlink:href="#T"/><use transform="matrix(0.06172839506172839,0,0,0.06172839506172839,65.18518518518519,0)" xlink:href="#v"/><use transform="matrix(0.06172839506172839,0,0,0.06172839506172839,77.53086419753087,0)" xlink:href="#u"/><use transform="matrix(0.06172839506172839,0,0,0.06172839506172839,89.87654320987656,0)" xlink:href="#s"/><use transform="matrix(0.06172839506172839,0,0,0.06172839506172839,94.7530864197531,0)" xlink:href="#U"/><use transform="matrix(0.06172839506172839,0,0,0.06172839506172839,107.09876543209879,0)" xlink:href="#x"/><use transform="matrix(0.06172839506172839,0,0,0.06172839506172839,113.27160493827162,0)" xlink:href="#y"/><use transform="matrix(0.06172839506172839,0,0,0.06172839506172839,125.6172839506173,0)" xlink:href="#z"/><use transform="matrix(0.06172839506172839,0,0,0.06172839506172839,137.962962962963,0)" xlink:href="#y"/></g><path fill="#3a414a" d="M96-169c-40 0-48 33-48 73s9 75 48 75c24 0 41-14 43-38l32 2c-6 37-31 61-74 61-59 0-76-41-82-99-10-93 101-131 147-64 4 7 5 14 7 22l-32 3c-4-21-16-35-41-35" id="Z"/><g id="n"><use transform="matrix(0.06172839506172839,0,0,0.06172839506172839,0,0)" xlink:href="#Z"/><use transform="matrix(0.06172839506172839,0,0,0.06172839506172839,11.11111111111111,0)" xlink:href="#U"/><use transform="matrix(0.06172839506172839,0,0,0.06172839506172839,23.45679012345679,0)" xlink:href="#E"/><use transform="matrix(0.06172839506172839,0,0,0.06172839506172839,28.333333333333336,0)" xlink:href="#v"/><use transform="matrix(0.06172839506172839,0,0,0.06172839506172839,40.67901234567901,0)" xlink:href="#t"/><use transform="matrix(0.06172839506172839,0,0,0.06172839506172839,53.02469135802469,0)" xlink:href="#u"/><use transform="matrix(0.06172839506172839,0,0,0.06172839506172839,65.37037037037037,0)" xlink:href="#U"/><use transform="matrix(0.06172839506172839,0,0,0.06172839506172839,77.71604938271605,0)" xlink:href="#A"/><use transform="matrix(0.06172839506172839,0,0,0.06172839506172839,83.82716049382717,0)" xlink:href="#x"/><use transform="matrix(0.06172839506172839,0,0,0.06172839506172839,90,0)" xlink:href="#y"/><use transform="matrix(0.06172839506172839,0,0,0.06172839506172839,102.34567901234568,0)" xlink:href="#z"/><use transform="matrix(0.06172839506172839,0,0,0.06172839506172839,114.69135802469137,0)" xlink:href="#y"/><path fill="#8080ff" d="M-1.1 1.54h129.25v1.63H-1.1z"/></g><g id="o"><use transform="matrix(0.06172839506172839,0,0,0.06172839506172839,0,0)" xlink:href="#t"/><use transform="matrix(0.06172839506172839,0,0,0.06172839506172839,12.345679012345679,0)" xlink:href="#v"/><use transform="matrix(0.06172839506172839,0,0,0.06172839506172839,24.691358024691358,0)" xlink:href="#X"/><use transform="matrix(0.06172839506172839,0,0,0.06172839506172839,40.67901234567901,0)" xlink:href="#Y"/><use transform="matrix(0.06172839506172839,0,0,0.06172839506172839,53.02469135802469,0)" xlink:href="#B"/><use transform="matrix(0.06172839506172839,0,0,0.06172839506172839,65.37037037037037,0)" xlink:href="#A"/><use transform="matrix(0.06172839506172839,0,0,0.06172839506172839,72.71604938271605,0)" xlink:href="#F"/><use transform="matrix(0.06172839506172839,0,0,0.06172839506172839,85.06172839506173,0)" xlink:href="#W"/><use transform="matrix(0.06172839506172839,0,0,0.06172839506172839,97.40740740740742,0)" xlink:href="#y"/><use transform="matrix(0.06172839506172839,0,0,0.06172839506172839,109.7530864197531,0)" xlink:href="#x"/><use transform="matrix(0.06172839506172839,0,0,0.06172839506172839,115.92592592592594,0)" xlink:href="#y"/><use transform="matrix(0.06172839506172839,0,0,0.06172839506172839,128.27160493827162,0)" xlink:href="#z"/><use transform="matrix(0.06172839506172839,0,0,0.06172839506172839,140.6172839506173,0)" xlink:href="#y"/></g><path fill="#3a414a" d="M24-231v-30h32v30H24zM-9 49c24 4 33-6 33-30v-209h32V24c2 40-23 58-65 49V49" id="aa"/><g id="p"><use transform="matrix(0.06172839506172839,0,0,0.06172839506172839,0,0)" xlink:href="#aa"/><use transform="matrix(0.06172839506172839,0,0,0.06172839506172839,4.876543209876543,0)" xlink:href="#F"/><use transform="matrix(0.06172839506172839,0,0,0.06172839506172839,17.22222222222222,0)" xlink:href="#s"/><use transform="matrix(0.06172839506172839,0,0,0.06172839506172839,22.098765432098766,0)" xlink:href="#t"/><use transform="matrix(0.06172839506172839,0,0,0.06172839506172839,34.44444444444444,0)" xlink:href="#B"/><use transform="matrix(0.06172839506172839,0,0,0.06172839506172839,46.79012345679012,0)" xlink:href="#A"/><use transform="matrix(0.06172839506172839,0,0,0.06172839506172839,54.1358024691358,0)" xlink:href="#F"/><use transform="matrix(0.06172839506172839,0,0,0.06172839506172839,66.48148148148148,0)" xlink:href="#W"/><use transform="matrix(0.06172839506172839,0,0,0.06172839506172839,78.82716049382717,0)" xlink:href="#y"/><use transform="matrix(0.06172839506172839,0,0,0.06172839506172839,91.17283950617285,0)" xlink:href="#x"/><use transform="matrix(0.06172839506172839,0,0,0.06172839506172839,97.34567901234568,0)" xlink:href="#y"/><use transform="matrix(0.06172839506172839,0,0,0.06172839506172839,109.69135802469137,0)" xlink:href="#z"/><use transform="matrix(0.06172839506172839,0,0,0.06172839506172839,122.03703703703705,0)" xlink:href="#y"/><path fill="#8080ff" d="M-1.1 1.54h136.6v1.63H-1.1z"/></g><g id="q"><use transform="matrix(0.06172839506172839,0,0,0.06172839506172839,0,0)" xlink:href="#u"/><use transform="matrix(0.06172839506172839,0,0,0.06172839506172839,12.345679012345679,0)" xlink:href="#v"/><use transform="matrix(0.06172839506172839,0,0,0.06172839506172839,24.691358024691358,0)" xlink:href="#E"/><use transform="matrix(0.06172839506172839,0,0,0.06172839506172839,29.5679012345679,0)" xlink:href="#v"/><use transform="matrix(0.06172839506172839,0,0,0.06172839506172839,41.913580246913575,0)" xlink:href="#D"/><use transform="matrix(0.06172839506172839,0,0,0.06172839506172839,48.08641975308642,0)" xlink:href="#v"/><use transform="matrix(0.06172839506172839,0,0,0.06172839506172839,60.432098765432094,0)" xlink:href="#x"/><use transform="matrix(0.06172839506172839,0,0,0.06172839506172839,66.60493827160494,0)" xlink:href="#y"/><use transform="matrix(0.06172839506172839,0,0,0.06172839506172839,78.95061728395062,0)" xlink:href="#z"/><use transform="matrix(0.06172839506172839,0,0,0.06172839506172839,91.2962962962963,0)" xlink:href="#y"/><path fill="#8080ff" d="M-1.1 1.54h105.85v1.63H-1.1z"/></g><path fill="#3a414a" d="M137 0h-34L2-248h35l83 218 83-218h36" id="ab"/><path fill="#3a414a" d="M33 0v-248h34V0H33" id="ac"/><g id="r"><use transform="matrix(0.06172839506172839,0,0,0.06172839506172839,0,0)" xlink:href="#ab"/><use transform="matrix(0.06172839506172839,0,0,0.06172839506172839,13.148148148148147,0)" xlink:href="#U"/><use transform="matrix(0.06172839506172839,0,0,0.06172839506172839,25.493827160493826,0)" xlink:href="#E"/><use transform="matrix(0.06172839506172839,0,0,0.06172839506172839,30.370370370370367,0)" xlink:href="#s"/><use transform="matrix(0.06172839506172839,0,0,0.06172839506172839,35.24691358024691,0)" xlink:href="#u"/><use transform="matrix(0.06172839506172839,0,0,0.06172839506172839,47.59259259259259,0)" xlink:href="#U"/><use transform="matrix(0.06172839506172839,0,0,0.06172839506172839,59.938271604938265,0)" xlink:href="#D"/><use transform="matrix(0.06172839506172839,0,0,0.06172839506172839,66.1111111111111,0)" xlink:href="#v"/><use transform="matrix(0.06172839506172839,0,0,0.06172839506172839,78.45679012345678,0)" xlink:href="#ac"/><use transform="matrix(0.06172839506172839,0,0,0.06172839506172839,84.62962962962962,0)" xlink:href="#t"/><use transform="matrix(0.06172839506172839,0,0,0.06172839506172839,96.9753086419753,0)" xlink:href="#y"/><use transform="matrix(0.06172839506172839,0,0,0.06172839506172839,109.32098765432099,0)" xlink:href="#W"/><use transform="matrix(0.06172839506172839,0,0,0.06172839506172839,121.66666666666667,0)" xlink:href="#D"/><use transform="matrix(0.06172839506172839,0,0,0.06172839506172839,127.83950617283949,0)" xlink:href="#x"/><use transform="matrix(0.06172839506172839,0,0,0.06172839506172839,134.01234567901236,0)" xlink:href="#y"/><use transform="matrix(0.06172839506172839,0,0,0.06172839506172839,146.35802469135803,0)" xlink:href="#z"/><use transform="matrix(0.06172839506172839,0,0,0.06172839506172839,158.7037037037037,0)" xlink:href="#y"/></g></defs></g></svg>