<svg xmlns="http://www.w3.org/2000/svg" viewBox="0 0 500 500"><defs><style>.cls-1{fill:#fff;}.cls-2{fill:#ff786c;}.cls-2,.cls-3,.cls-4{opacity:0.4;}.cls-3{fill:#f8b8ff;}.cls-4{fill:#008707;}</style></defs><g id="Layer_2_copy" data-name="Layer 2 copy"><path class="cls-1" d="M497.8,250a247,247,0,0,1-17.38,91.34C444.06,433,354.6,497.8,250,497.8c-1.65,0-3.3,0-4.94-.05A247.73,247.73,0,1,1,485,171.09q1.68,5,3.16,10.13A247.77,247.77,0,0,1,497.8,250Z"/><path class="cls-2" d="M422.52,168q-1.66,5.59-3.63,11.1-1.15,3.24-2.42,6.44c-9.07,23-22.09,44.32-38.23,61.25a135.66,135.66,0,0,1-12,11.23,115.55,115.55,0,0,1-34.65,19.76c-36.86,13.55-79.91,11.77-145.31,41.34a380.53,380.53,0,0,0-98.87,64.64c-9.76,8.78-18.59,17.57-26.67,26.15A247.8,247.8,0,0,1,427.44,77C433.78,105.4,431.56,137.6,422.52,168Z"/><path class="cls-3" d="M335.65,155.56c-21.2-29.39-25.44-77.67-14-123,1.53-6.1,3.35-12.15,5.46-18.09A248.46,248.46,0,0,1,485,171.09q1.68,5,3.16,10.13c-7,.61-14.24,1.28-21.5,1.9-16.77,1.44-33.87,2.65-50.16,2.45-4.68-.06-9.3-.23-13.82-.55-2.83-.2-5.63-.46-8.38-.78-4-.46-7.86-1.05-11.63-1.8C363.07,178.56,346.47,170.57,335.65,155.56Z"/><path class="cls-3" d="M413.48,393.9c24-17.43,46.59-35.15,66.94-52.56C444.06,433,354.6,497.8,250,497.8c-1.65,0-3.3,0-4.94-.05q8.33-4.35,16.91-8.92,18.6-9.9,37.24-20.69A1331.05,1331.05,0,0,0,413.48,393.9Z"/><path class="cls-4" d="M497.8,250a247,247,0,0,1-17.38,91.34C444.06,433,354.6,497.8,250,497.8c-1.65,0-3.3,0-4.94-.05A247.81,247.81,0,0,1,105,49c6,10.21,12.38,20.88,19.54,31.59,23.27,34.84,54.25,70.18,101.74,92.14,1.29.61,2.59,1.19,3.91,1.77a212.08,212.08,0,0,0,52.28,15.33c34.62,5.52,67.61,2.3,97.64-3,4.79-.83,9.5-1.72,14.13-2.64,3.74-.74,7.44-1.49,11.07-2.25,4.61-1,9.12-1.93,13.55-2.86,13.73-2.92,26.55-5.58,38.27-7.12,10.13-1.33,19.44-1.82,27.81-.92q1.68,5,3.16,10.13A247.77,247.77,0,0,1,497.8,250Z"/></g><g id="Layer_1" data-name="Layer 1"><path d="M320.24,470.1a138.66,138.66,0,0,1-43-7.58,84,84,0,0,0-33.61-4.41A75.14,75.14,0,0,0,224.28,462a142.45,142.45,0,0,1-38.66,7.86C165.93,471,146.91,468.2,129,459.61c-13.17-6.3-24.16-15.2-32.12-27.58a64.79,64.79,0,0,1-9.93-27.3c-1.82-14.47.88-28.2,6.92-41.35a106,106,0,0,1,26.06-34.66c4.19-3.76,8.63-7.23,12.84-11a205.13,205.13,0,0,0,40.72-49.59c13.61-23.05,33.67-37.48,60-42.54a88,88,0,0,1,95.84,47.74,122,122,0,0,0,23.4,33.12,108.62,108.62,0,0,0,14.46,12,118.88,118.88,0,0,1,31.05,30.92c7.12,10.52,12.27,21.89,14.31,34.5,3.66,22.71-2.34,42.55-18.29,59.2-9.93,10.37-22.17,17.08-35.72,21.48A117.21,117.21,0,0,1,320.24,470.1Z"/><path d="M266.9,123.6c.2-4.58.33-9.18.6-13.76.93-15.46,2.63-30.81,7-45.73,2.25-7.67,5.21-15,10-21.55,4-5.41,8.87-9.59,15.41-11.53a31.58,31.58,0,0,1,16.87,0c8,2,15.07,5.78,21.75,10.43,13.12,9.12,23.86,20.61,33.06,33.59a138.92,138.92,0,0,1,15.65,28.51,86.19,86.19,0,0,1,6.18,42.36c-1.47,13.2-4.92,25.76-11.28,37.45a72.89,72.89,0,0,1-20.41,24.11A52.7,52.7,0,0,1,336.17,218a49.92,49.92,0,0,1-31.5-6.75c-9.68-5.61-17.16-13.47-23.12-22.83a94.62,94.62,0,0,1-13.3-35.56C266.61,143.14,266.62,133.38,266.9,123.6Z"/><path d="M232.88,126.23c0,5.37.3,10.76,0,16.1-1.29,19.29-7.05,37-19,52.46-6.33,8.15-14,14.76-23.49,18.94-16.06,7.08-31.76,6-46.88-2.76-10.08-5.85-17.69-14.23-23.69-24.13a95.31,95.31,0,0,1-12.7-36.38A103.82,103.82,0,0,1,106,134.41a82.62,82.62,0,0,1,5.31-27.1c6.06-16.77,15.39-31.58,27.07-45A120.33,120.33,0,0,1,164.2,39.6c6.42-4.1,13.2-7.43,20.73-9s14.94-.89,21.66,3.4a31.67,31.67,0,0,1,7.7,7,59.07,59.07,0,0,1,8.93,16.48,132.93,132.93,0,0,1,6.55,26.51A285.81,285.81,0,0,1,232.88,126.23Z"/><path d="M483.85,245.73c0,10.08-1.29,20.91-5.43,31.2-7,17.37-17.93,31.67-33.8,41.9a57.32,57.32,0,0,1-25.84,9.38c-16.39,1.52-30-4-40.45-16.84-6-7.43-9.57-16.07-11.42-25.4a82.85,82.85,0,0,1,4.4-46.88,195.11,195.11,0,0,1,29.55-51.9,82.88,82.88,0,0,1,16.41-15.88,42.52,42.52,0,0,1,11.12-5.84A26.68,26.68,0,0,1,452,168.19a47.06,47.06,0,0,1,13.46,13.25c6.12,8.65,10.22,18.25,13.23,28.35A127.12,127.12,0,0,1,483.85,245.73Z"/><path d="M16.16,244.76c.15-18.83,3.95-36.83,12.48-53.72A62.63,62.63,0,0,1,41.11,173.6a46.55,46.55,0,0,1,6.67-5.29c7.56-4.87,15.66-5.68,24.14-2.71a47.21,47.21,0,0,1,14.59,8.69,104,104,0,0,1,17.64,19.54,206.6,206.6,0,0,1,24.41,45.1,84.92,84.92,0,0,1,5.67,38.25c-1.07,13.05-4.92,25.13-13.55,35.26-9.48,11.14-21.66,16.47-36.3,16C73.05,328,62.93,324,53.64,317.75,41,309.24,31.71,297.81,24.78,284.34c-5.67-11-8.21-22.81-8.61-35.12C16.12,247.74,16.16,246.25,16.16,244.76Z"/></g></svg>